<svg xmlns="http://www.w3.org/2000/svg" xmlns:xlink="http://www.w3.org/1999/xlink" width="232" height="75" viewBox="0 0 232 75">
  <defs>
    <polygon id="cls-logo-a" points="0 .401 24.861 .401 24.861 37.941 0 37.941"/>
  </defs>
  <g fill="none" fill-rule="evenodd">
    <path fill="#000" d="M25.6723733,18.0712723 L34.5770366,18.0712723 C34.5770366,18.9645276 34.5758848,19.7453901 34.5770366,20.5262526 C34.586827,27.0118534 34.3242138,33.502271 34.5770366,39.9793086 C34.6559358,42.0018441 35.6482223,44.1207163 36.6623934,45.9537897 C37.6610149,47.7590324 39.6991473,48.5227684 41.9509409,48.5222331 C47.9219375,48.5211627 53.89351,48.550599 59.8650825,48.5125995 C62.9542439,48.4927969 64.2333318,46.9770995 64.2298764,43.5341328 C64.2269968,40.7671287 62.7158187,39.3359935 59.7861833,39.2450088 C57.2038194,39.1647282 54.606482,39.1556298 52.0471544,38.8714365 C48.988516,38.531582 46.7505441,36.8553234 46.0214467,34.1016994 C45.343605,31.5418192 44.8442942,28.824589 45.0003648,26.2149348 C45.2969566,21.2605523 48.4984197,18.4748161 54.1705209,18.1338912 C58.5900259,17.8678949 63.0429335,18.0803708 67.5724365,18.0803708 C67.889185,20.4149302 68.1391283,22.2549612 68.4247779,24.3593829 C67.6058391,24.3925655 66.8652236,24.4492972 66.1246081,24.4482267 C62.8874388,24.4439451 59.646814,24.3272707 56.4154037,24.4396635 C53.9413102,24.5263665 52.6535837,26.1496399 52.6812272,28.7330691 C52.7094466,31.3721595 53.7598997,32.6368463 56.3468708,32.7963371 C58.5675656,32.9328141 60.8066893,32.782957 63.0325671,32.8701952 C68.1039981,33.0676855 71.0468793,35.3085842 71.5715299,39.983055 C71.8853989,42.7816362 71.6354555,45.7156239 71.0923759,48.4965434 C70.3563676,52.2633084 67.5666775,54.6428249 63.4644969,54.7380912 C55.202545,54.9296942 46.9077665,55.2165635 38.6694268,54.7380912 C32.0522634,54.3538148 26.3363933,50.4259534 25.6723733,44.3390795 C24.727887,35.6773397 25.9568711,26.9069534 25.6723733,18.0712723"/>
    <g transform="translate(0 17)">
      <mask id="cls-logo-b" fill="#fff">
        <use xlink:href="#cls-logo-a"/>
      </mask>
      <path fill="#000" d="M21.9475835,0.434466667 L21.9475835,6.9891913 C19.6364033,6.9891913 17.4299107,6.96606087 15.2239934,6.99524928 C12.2576529,7.0338 10.4578314,8.1671913 9.67267438,10.915858 C8.15412893,16.2320029 8.16620826,21.6775681 9.03994711,27.0686116 C9.55820826,30.2672203 11.4443107,31.4711043 14.7695802,31.4821188 C17.7042843,31.4920319 20.6395636,31.4843217 23.6795306,31.4843217 C24.0913785,33.7064957 24.4750413,35.6946116 24.861005,37.7780029 C19.9521917,37.7780029 15.209038,38.1447855 10.5216793,37.7780029 C5.75666777,37.4051623 2.60798678,34.5590174 1.45239669,30.1306406 C-0.146102479,24.0021768 -0.587861157,17.7602638 0.955993388,11.5530464 C2.75351405,4.32368406 7.47826116,0.697713043 15.1693488,0.434466667 C17.3764165,0.359017391 19.588086,0.434466667 21.9475835,0.434466667" mask="url(#cls-logo-b)"/>
    </g>
    <polygon fill="#045800" points="0 6 71.709 6 71.709 0 0 0"/>
    <polygon fill="#FF0603" points="0 12 71.709 12 71.709 6 0 6"/>
    <polygon fill="#0067DB" points="0 70 71.709 70 71.709 64 0 64"/>
    <polygon fill="#FFD610" points="0 75 71.709 75 71.709 69 0 69"/>
    <path fill="#000" d="M90.603336 5C92.5808862 5 94.4209596 5.67625605 95.8235564 6.73536028 95.9615898 6.84825141 96.0077864 7.02822278 95.9159497 7.14111391 95.7779164 7.27581976 95.594243 7.2987252 95.4790297 7.18583407 94.1448929 6.17199536 92.4662295 5.585725 90.603336 5.585725 86.3482358 5.585725 82.8523189 8.89828891 82.8523189 12.9776399 82.8523189 17.1011657 86.3482358 20.414275 90.603336 20.414275 92.4434094 20.414275 94.1220729 19.8280046 95.4562097 18.8141659 95.594243 18.7241802 95.7779164 18.7241802 95.8931297 18.8594315 96.0077864 18.9717772 95.9615898 19.152294 95.8235564 19.2646397 94.374763 20.3237439 92.5808862 21 90.603336 21 86.0031524 20.9770946 82.2545455 17.3945736 82.2545455 12.9776399 82.2545455 8.60542641 86.0031524 5 90.603336 5M105.575095.566276495L107.2399 2.20025308C107.382614 2.33101339 107.620279 2.61415164 107.881538 2.61415164 108.096184 2.61415164 108.19056 2.67953179 108.19056 2.57091638 108.19056 2.48339133 108.166966 2.41801118 108.072015 2.30939576L106.359447.391753664C106.145951.152377939 105.979643 0 105.694215 0L105.504314 0C105.218886 0 105.052578.152377939 104.837931.391753664L103.125939 2.30939576C103.030988 2.41801118 103.006818 2.48339133 103.006818 2.57091638 103.006818 2.67953179 103.149532 2.61415164 103.34001 2.61415164 103.577675 2.61415164 103.815339 2.33101339 103.93446 2.22239798L105.575095.566276495zM101.509472 15.3379732L109.355866 15.3379732 105.432381 5.79510703 101.509472 15.3379732zM111.186979 19.8038595L109.593531 15.9042497 101.271232 15.9042497 99.6783593 19.8038595C99.65419 19.9130022 99.5356453 20 99.4171006 20 99.3929313 20 99.3451681 19.9783824 99.2979804 19.9783824 99.1552664 19.9130022 99.0839094 19.7606243 99.1552664 19.6082463L105.146953 4.96730992C105.195292 4.83654962 105.313837 4.77116946 105.456551 4.79278709 105.575095 4.79278709 105.694215 4.85816725 105.765572 4.96730992L111.757835 19.6082463C111.828616 19.7606243 111.733665 19.9130022 111.591527 19.9783824 111.543764 19.9783824 111.519594 20 111.496001 20 111.37688 20 111.258336 19.9130022 111.186979 19.8038595zM127.014161 6.07294949L121.038374 13.6910986C120.968051 13.7554963 120.874475 13.7980819 120.7809 13.7980819L120.733829 13.7980819C120.617001 13.7980819 120.522858 13.7554963 120.476354 13.6910986L114.477315 6.05165668 114.477315 19.7211162C114.477315 19.8712045 114.359921 20 114.195455 20 114.031556 20 113.890909 19.8712045 113.890909 19.7211162L113.890909 5.27888377C113.890909 5.15060762 114.031556 5 114.195455 5 114.218707 5 114.242526 5 114.265778 5.02181214 114.336669 5.02181214 114.406992 5.06439774 114.477315 5.10750268L120.757648 13.0902261 127.037413 5.10750268C127.084484 5.06439774 127.154808 5.02181214 127.225131 5.02181214 127.248383 5 127.271635 5 127.295454 5 127.482605 5 127.6 5.15060762 127.6 5.27888377L127.6 19.7211162C127.6 19.8712045 127.482605 20 127.295454 20 127.154808 20 127.014161 19.8712045 127.014161 19.7211162L127.014161 6.07294949zM133.145683 15.4023677L140.992148 15.4023677 137.068916 5.99237703 133.145683 15.4023677zM141.229798 15.9607593L132.908033 15.9607593 131.314688 19.8065906C131.291095 19.9136937 131.171983 20 131.053446 20 131.029278 20 130.982093 19.9781635 130.934333 19.9781635 130.791628 19.9136937 130.720276 19.7634374 130.791628 19.6131812L136.783506 5.17662614C136.831266 5.04716663 136.949803 4.98269683 137.092508 5.00401346 137.211045 5.00401346 137.330158 5.06900317 137.40151 5.17662614L143.393963 19.6131812C143.465316 19.7634374 143.369795 19.9136937 143.227666 19.9781635 143.17933 19.9781635 143.155738 20 143.13157 20 143.013033 20 142.893921 19.9136937 142.822568 19.8065906L141.229798 15.9607593zM150.667409 12.7787381L150.71477 12.7787381C152.884264 12.7574762 154.652042 11.1929127 154.652042 9.17873812 154.652042 7.16456353 152.860298 5.53621435 150.667409 5.53621435L146.116722 5.53621435 146.116722 12.7787381 150.667409 12.7787381zM154.369015 16.7645635C154.369015 15.7144339 153.850322 14.9858254 153.190686 14.4501296 152.553875 13.9356958 151.610642 13.3362143 149.016608 13.3362143L146.116722 13.3362143 146.116722 19.7215212C146.116722 19.8713915 145.998604 20 145.833695 20 145.668786 20 145.527273 19.8713915 145.527273 19.7215212L145.527273 5.27899741C145.527273 5.12912705 145.668786 5 145.833695 5L145.857661 5 145.881057 5 150.667409 5C153.190686 5 155.265457 6.86482282 155.265457 9.17873812 155.265457 11.0860847 153.874288 12.6713915 151.963855 13.1645635 152.247453 13.2719101 152.53048 13.4005186 152.813507 13.5503889 153.850322 14.0860847 154.959035 15.1144339 154.959035 16.7645635 154.959035 17.9858254 155.14791 18.6501296 155.312818 18.9498704 155.477727 19.2288678 155.619241 19.2070873 155.689998 19.2070873 155.878302 19.1858254 156.043211 19.293172 156.067177 19.4217805 156.113968 19.7002593 155.854907 19.7645635 155.666602 19.7645635 155.430366 19.7645635 155.053187 19.6146932 154.816951 19.1858254 154.533923 18.7574762 154.369015 18.0501296 154.369015 16.7645635zM160.563865 15.4023677L168.41033 15.4023677 164.487097 5.99237703 160.563865 15.4023677zM168.64798 15.9607593L160.326215 15.9607593 158.732869 19.8065906C158.709277 19.9136937 158.590165 20 158.471627 20 158.44746 20 158.400275 19.9781635 158.352515 19.9781635 158.20981 19.9136937 158.138458 19.7634374 158.20981 19.6131812L164.201688 5.17662614C164.249448 5.04716663 164.367985 4.98269683 164.51069 5.00401346 164.629227 5.00401346 164.748339 5.06900317 164.819692 5.17662614L170.812145 19.6131812C170.883497 19.7634374 170.787977 19.9136937 170.645848 19.9781635 170.597512 19.9781635 170.57392 20 170.549752 20 170.431215 20 170.312103 19.9136937 170.24075 19.8065906L168.64798 15.9607593zM86.7398939 46.4643042C90.9405658 46.4217805 94.3018941 43.3362143 94.3256172 39.4784788 94.3018941 35.6643042 90.9405658 32.5362143 86.7398939 32.5362143L83.8925646 32.5362143 83.8925646 46.4643042 86.7398939 46.4643042zM83.3090909 32.2789974C83.3090909 32.1286085 83.4260116 32 83.6124069 32L83.6355651 32 86.7398939 32C91.2676048 32 94.9090909 35.3645635 94.9090909 39.4784788 94.9090909 43.6359551 91.2676048 47 86.7398939 47L83.6355651 47 83.6124069 47C83.4260116 47 83.3090909 46.8713915 83.3090909 46.7215212L83.3090909 32.2789974zM97.3531755 47L97.305154 47C97.1142249 47 97.0181818 46.8713915 97.0181818 46.7215212L97.0181818 32.2789974C97.0181818 32.1503889 97.1142249 32.0217805 97.305154 32L97.3288754 32 97.3531755 32 106.222697 32C106.389905 32 106.509091 32.1286085 106.509091 32.2789974 106.509091 32.4288678 106.389905 32.5356958 106.222697 32.5356958L97.6158476 32.5356958 97.6158476 39.2217805 105.195152 39.2217805C105.36236 39.2217805 105.481546 39.3498704 105.481546 39.4784788 105.481546 39.6501296 105.36236 39.7569576 105.195152 39.7569576L97.6158476 39.7569576 97.6158476 46.4643042 106.222697 46.4643042C106.389905 46.4643042 106.509091 46.5716508 106.509091 46.7215212 106.509091 46.8713915 106.389905 47 106.222697 47L97.376897 47 97.3531755 47zM122.239234 32C124.217363 32 126.0569 32.6762561 127.460069 33.7353603 127.598103 33.8482514 127.644301 34.0282228 127.551906 34.1411139 127.414428 34.2758198 127.230196 34.2987252 127.114981 34.1858341 125.78083 33.1719954 124.102705 32.585725 122.239234 32.585725 117.984088 32.585725 114.488689 35.8982889 114.488689 39.9776399 114.488689 44.1011657 117.984088 47.414275 122.239234 47.414275 124.079328 47.414275 125.75801 46.8280046 127.092161 45.8141659 127.230196 45.7236349 127.414428 45.7236349 127.529086 45.8588861 127.644301 45.9717772 127.598103 46.1517486 127.460069 46.2646397 126.011259 47.3242893 124.217363 48 122.239234 48 117.639557 47.9776399 113.890909 44.3945736 113.890909 39.9776399 113.890909 35.6054264 117.639557 32 122.239234 32M138.660957 47.4028452C142.621388 47.3583933 145.91035 44.0834142 145.93389 39.9890209 145.91035 35.873205 142.621388 32.5751967 138.660957 32.5751967 134.678107 32.5751967 131.388584 35.873205 131.388584 39.9890209 131.388584 44.0834142 134.678107 47.3583933 138.660957 47.4028452M138.660957 32C143.038393 32 146.535858 35.563113 146.581818 39.9890209 146.535858 44.4374226 143.038393 48 138.660957 48 134.283521 48 130.786617 44.4374226 130.763636 39.9890209 130.786617 35.563113 134.283521 32 138.660957 32M161.814728 33.0729495L155.838941 40.6910986C155.768618 40.7554963 155.675042 40.7986013 155.5809 40.7986013L155.534396 40.7986013C155.417001 40.7986013 155.323425 40.7554963 155.276354 40.6910986L149.277315 33.0516567 149.277315 46.7211162C149.277315 46.8712045 149.160488 47 148.996022 47 148.831556 47 148.690909 46.8712045 148.690909 46.7211162L148.690909 32.2788838C148.690909 32.1506076 148.831556 32 148.996022 32 149.019274 32 149.042526 32 149.066345 32.0218121 149.136669 32.0218121 149.206992 32.0643977 149.277315 32.1075027L155.557648 40.0902261 161.83798 32.1075027C161.884484 32.0643977 161.954808 32.0218121 162.025131 32.0218121 162.04895 32 162.072202 32 162.095454 32 162.283172 32 162.4 32.1506076 162.4 32.2788838L162.4 46.7211162C162.4 46.8712045 162.283172 47 162.095454 47 161.954808 47 161.814728 46.8712045 161.814728 46.7211162L161.814728 33.0729495zM171.186765 29.6434883C171.186765 29.5569627 171.234783 29.4699127 171.282802 29.4048874L172.765015 27.3901518C172.956511 27.1300506 173.147428 27 173.434383 27 173.888535 27 173.792498 27.2165762 173.864237 27.3251265 173.935975 27.4336768 173.768778 27.5852277 173.6253 27.7152783L171.927871 29.3833871C171.665215 29.6434883 171.593476 29.621988 171.35454 29.7085136 171.211063 29.7735389 171.186765 29.7520386 171.186765 29.6434883zM168.007701 47L167.959682 47C167.768765 47 167.672727 46.8699494 167.672727 46.7183985L167.672727 32.1139254C167.672727 31.9838748 167.768765 31.8538242 167.959682 31.8317995L167.98398 31.8317995 168.007701 31.8317995 176.876682 31.8317995C177.043879 31.8317995 177.163636 31.9618501 177.163636 32.1139254 177.163636 32.2654763 177.043879 32.3740266 176.876682 32.3740266L168.270357 32.3740266 168.270357 39.1345604 175.84862 39.1345604C176.016396 39.1345604 176.135575 39.2640866 176.135575 39.3941372 176.135575 39.5677128 176.016396 39.6757387 175.84862 39.6757387L168.270357 39.6757387 168.270357 46.4582973 176.876682 46.4582973C177.043879 46.4582973 177.163636 46.5668476 177.163636 46.7183985 177.163636 46.8699494 177.043879 47 176.876682 47L168.031421 47 168.007701 47zM185.467409 39.7787381L185.51477 39.7787381C187.684264 39.7569576 189.452042 38.1929127 189.452042 36.1787381 189.452042 34.1645635 187.660298 32.5356958 185.467409 32.5356958L180.916722 32.5356958 180.916722 39.7787381 185.467409 39.7787381zM189.169015 43.7645635C189.169015 42.7139153 188.650322 41.9858254 187.990686 41.4501296 187.353875 40.9356958 186.410642 40.3356958 183.816608 40.3356958L180.916722 40.3356958 180.916722 46.7215212C180.916722 46.8713915 180.798604 47 180.633695 47 180.468786 47 180.327273 46.8713915 180.327273 46.7215212L180.327273 32.2789974C180.327273 32.1286085 180.468786 32 180.633695 32L180.657661 32 180.681057 32 185.467409 32C187.990686 32 190.065457 33.8643042 190.065457 36.1787381 190.065457 38.0855661 188.674288 39.6713915 186.763855 40.1640449 187.047453 40.2713915 187.33048 40.4 187.613507 40.5498704 188.650322 41.0860847 189.759035 42.1144339 189.759035 43.7645635 189.759035 44.9858254 189.94791 45.6496111 190.112818 45.9498704 190.277727 46.2288678 190.419241 46.2070873 190.489998 46.2070873 190.678302 46.1853068 190.843211 46.293172 190.867177 46.4217805 190.913968 46.7002593 190.654907 46.7645635 190.466602 46.7645635 190.230366 46.7645635 189.853187 46.6141746 189.616951 46.1853068 189.333923 45.7569576 189.169015 45.0501296 189.169015 43.7645635zM201.330143 32C203.308272 32 205.147809 32.6762561 206.550978 33.7353603 206.689012 33.8482514 206.73521 34.0282228 206.642815 34.1411139 206.505337 34.2758198 206.321105 34.2987252 206.205891 34.1858341 204.871739 33.1719954 203.193614 32.585725 201.330143 32.585725 197.074997 32.585725 193.579598 35.8982889 193.579598 39.9776399 193.579598 44.1011657 197.074997 47.414275 201.330143 47.414275 203.170237 47.414275 204.848919 46.8280046 206.18307 45.8141659 206.321105 45.7236349 206.505337 45.7236349 206.619995 45.8588861 206.73521 45.9717772 206.689012 46.1517486 206.550978 46.2646397 205.102168 47.3242893 203.308272 48 201.330143 48 196.730466 47.9776399 192.981818 44.3945736 192.981818 39.9776399 192.981818 35.6054264 196.730466 32 201.330143 32M210.909091 32.2789974C210.909091 32.1073466 211.119591 32 211.457822 32 211.71124 32 211.963636 32.1073466 211.963636 32.2789974L211.963636 46.7215212C211.963636 46.8926534 211.71124 47 211.457822 47 211.119591 47 210.909091 46.8926534 210.909091 46.7215212L210.909091 32.2789974zM224.079139 47.4028452C228.039569 47.3583933 231.328532 44.0834142 231.351512 39.9890209 231.328532 35.873205 228.039569 32.5751967 224.079139 32.5751967 220.096289 32.5751967 216.806766 35.873205 216.806766 39.9890209 216.806766 44.0834142 220.096289 47.3583933 224.079139 47.4028452M224.079139 32C228.456575 32 231.95404 35.563113 232 39.9890209 231.95404 44.4374226 228.456575 48 224.079139 48 219.701703 48 216.204798 44.4374226 216.181818 39.9890209 216.204798 35.563113 219.701703 32 224.079139 32M83.6654462 74L83.6182392 74C83.4518633 74 83.3090909 73.8713915 83.3090909 73.7215212L83.3090909 59.2784788C83.3090909 59.1286085 83.4518633 59 83.6182392 59 83.784615 59 83.9037839 59.1286085 83.9037839 59.2784788L83.9037839 73.4643042 92.4908517 73.4643042C92.6814068 73.4643042 92.8 73.5716508 92.8 73.7215212 92.8 73.8713915 92.6814068 74 92.4908517 74L83.6654462 74zM93.8545455 59.2784788C93.8545455 59.1286085 93.967006 59 94.1477073 59 94.3054796 59 94.4179402 59.1286085 94.4179402 59.2784788L94.4179402 67.9782195C94.4179402 71.0217805 96.9897937 73.4212619 100.170354 73.4637857 103.328531 73.4212619 105.899838 71.0217805 105.922221 67.9782195L105.922221 59.2784788C105.922221 59.1286085 106.058157 59 106.215929 59 106.351319 59 106.509091 59.1286085 106.509091 59.2784788L106.509091 67.9782195C106.509091 71.3215212 103.644622 74 100.170354 74 96.673703 74 93.8545455 71.3215212 93.8545455 67.9782195L93.8545455 59.2784788zM109.775295 72.7204492C109.655521 72.6074001 109.631797 72.4271768 109.751572 72.3141277 109.870767 72.2016247 110.06229 72.1792334 110.181485 72.2917364 110.205209 72.3141277 112.715836 74.4358467 115.991397 74.4358467 119.218932 74.4358467 121.729559 72.7204492 121.729559 70.5315561 121.729559 68.0264532 119.170907 67.4622999 116.469336 66.8757552 113.696016 66.2668191 110.827224 65.6343994 110.827224 62.7459126 110.827224 60.69246 113.146328 59 116.01512 59 119.314405 59 121.036374 60.8279005 121.108123 60.9185582 121.227318 61.0310612 121.203595 61.2118306 121.083821 61.3243335 120.940902 61.4144452 120.749379 61.4144452 120.653907 61.3019422 120.630184 61.2795508 119.027988 59.5865447 116.01512 59.5865447 113.504493 59.5865447 111.449239 61.0086698 111.449239 62.7459126 111.449239 65.1603577 113.958709 65.724511 116.612833 66.3116019 119.434179 66.9210841 122.327273 67.5524115 122.327273 70.5315561 122.327273 73.0361129 119.553374 75 115.991397 75 112.476866 75 109.870767 72.8105608 109.775295 72.7204492M131.279139 74.4028452C135.239569 74.3583933 138.528532 71.0834142 138.552072 66.9890209 138.528532 62.873205 135.239569 59.5751967 131.279139 59.5751967 127.296289 59.5751967 124.006766 62.873205 124.006766 66.9890209 124.006766 71.0834142 127.296289 74.3583933 131.279139 74.4028452M131.279139 59C135.656575 59 139.15404 62.563113 139.2 66.9890209 139.15404 71.4374226 135.656575 75 131.279139 75 126.901703 75 123.404798 71.4374226 123.381818 66.9890209 123.404798 62.563113 126.901703 59 131.279139 59M142.363636 67.455C142.363636 67.207 142.465929 67 142.619678 67L148.460285 67C148.614035 67 148.690909 67.207 148.690909 67.455 148.690909 67.703 148.614035 67.827 148.460285 67.827L142.619678 67.827C142.465929 67.827 142.363636 67.703 142.363636 67.455M150.902663 72.7204492C150.78289 72.6074001 150.759166 72.4271768 150.878361 72.3141277 150.998134 72.2016247 151.189077 72.1792334 151.30885 72.2917364 151.332573 72.3141277 153.843181 74.4358467 157.118718 74.4358467 160.346229 74.4358467 162.856837 72.7204492 162.856837 70.5315561 162.856837 68.0264532 160.298204 67.4622999 157.596653 66.8757552 154.823354 66.2668191 151.954005 65.6343994 151.954005 62.7459126 151.954005 60.69246 154.27367 59 157.142441 59 160.4417 59 162.163657 60.8279005 162.235405 60.9185582 162.354599 61.0310612 162.330876 61.2118306 162.211103 61.3243335 162.068185 61.4144452 161.876664 61.4144452 161.781193 61.3019422 161.756891 61.2795508 160.155286 59.5865447 157.142441 59.5865447 154.631833 59.5865447 152.576016 61.0086698 152.576016 62.7459126 152.576016 65.1603577 155.086045 65.724511 157.740149 66.3116019 160.561473 66.9210841 163.454545 67.5524115 163.454545 70.5315561 163.454545 73.0361129 160.680668 75 157.118718 75 153.604214 75 150.998134 72.8105608 150.902663 72.7204492M164.509091 59.2784788C164.509091 59.1286085 164.621547 59 164.80224 59 164.960006 59 165.073007 59.1286085 165.073007 59.2784788L165.073007 67.9782195C165.073007 71.0217805 167.644204 73.4212619 170.824627 73.4637857 173.982668 73.4212619 176.55441 71.0217805 176.576792 67.9782195L176.576792 59.2784788C176.576792 59.1286085 176.712176 59 176.870487 59 177.005871 59 177.163636 59.1286085 177.163636 59.2784788L177.163636 67.9782195C177.163636 71.3215212 174.298745 74 170.824627 74 167.328673 74 164.509091 71.3215212 164.509091 67.9782195L164.509091 59.2784788zM182.770779 74L182.722757 74C182.531828 74 182.436364 73.8713915 182.436364 73.7215212L182.436364 59.2784788C182.436364 59.1498704 182.531828 59.0217805 182.722757 59L182.747057 59 182.770779 59 191.640301 59C191.807508 59 191.927273 59.1286085 191.927273 59.2784788 191.927273 59.4283492 191.807508 59.5356958 191.640301 59.5356958L183.033451 59.5356958 183.033451 66.2217805 190.612177 66.2217805C190.779963 66.2217805 190.899149 66.3498704 190.899149 66.4784788 190.899149 66.6501296 190.779963 66.7569576 190.612177 66.7569576L183.033451 66.7569576 183.033451 73.4643042 191.640301 73.4643042C191.807508 73.4643042 191.927273 73.5716508 191.927273 73.7215212 191.927273 73.8713915 191.807508 74 191.640301 74L182.7945 74 182.770779 74zM202.384689 59C204.362817 59 206.202354 59.6757107 207.605523 60.7353603 207.743558 60.8482514 207.789755 61.0282228 207.697361 61.1411139 207.559883 61.2763651 207.375651 61.2987252 207.260993 61.1858341 205.926285 60.17145 204.248159 59.585725 202.384689 59.585725 198.129542 59.585725 194.634144 62.8982889 194.634144 66.9776399 194.634144 71.1011657 198.129542 74.414275 202.384689 74.414275 204.224783 74.414275 205.903464 73.8280046 207.237616 72.8141659 207.375651 72.7236349 207.559883 72.7236349 207.674541 72.8588861 207.789755 72.9717772 207.743558 73.1517486 207.605523 73.2646397 206.156157 74.3242893 204.362817 75 202.384689 75 197.785012 74.9776399 194.036364 71.3945736 194.036364 66.9776399 194.036364 62.6054264 197.785012 59 202.384689 59M213.291138 69.4027286L221.137603 69.4027286 217.21437 59.9924124 213.291138 69.4027286zM221.375253 69.9611395L213.053488 69.9611395 211.460142 73.8071039C211.43655 73.9142106 211.317437 74 211.1989 74 211.174732 74 211.127548 73.9786826 211.079788 73.9786826 210.937083 73.9142106 210.86573 73.7639492 210.937083 73.6136878L216.928961 59.1761134C216.976721 59.0471693 217.095258 58.9826973 217.237963 59.0040146 217.3565 59.0040146 217.475612 59.0684867 217.546965 59.1761134L223.539418 73.6136878C223.61077 73.7639492 223.51525 73.9142106 223.373121 73.9786826 223.324785 73.9786826 223.301193 74 223.277025 74 223.158488 74 223.039375 73.9142106 222.968023 73.8071039L221.375253 69.9611395z"/>
  </g>
</svg>
